<mxfile host="sandbox.cryptpad.info" version="21.8.2" type="embed"><diagram id="bWoO5ACGZIaXrIiKNTKd" name="Page-1"><mxGraphModel dx="979" dy="2003" grid="1" gridSize="10" guides="1" tooltips="1" connect="1" arrows="1" fold="1" page="1" pageScale="1" pageWidth="827" pageHeight="1169" math="0" shadow="0"><root><mxCell id="0"/><mxCell id="1" parent="0"/><mxCell id="2" value="song" style="rounded=1;arcSize=10;whiteSpace=wrap;html=1;align=center;" vertex="1" parent="1"><mxGeometry x="640" y="120" width="120" height="40" as="geometry"/></mxCell><mxCell id="3" value="songID" style="ellipse;whiteSpace=wrap;html=1;align=center;fontStyle=4;" vertex="1" parent="1"><mxGeometry x="800" width="120" height="40" as="geometry"/></mxCell><mxCell id="5" value="imageName" style="ellipse;whiteSpace=wrap;html=1;align=center;" vertex="1" parent="1"><mxGeometry x="560" y="-120" width="120" height="40" as="geometry"/></mxCell><mxCell id="6" value="title" style="ellipse;whiteSpace=wrap;html=1;align=center;" vertex="1" parent="1"><mxGeometry x="790" y="-60" width="120" height="40" as="geometry"/></mxCell><mxCell id="8" value="releaseDate" style="ellipse;whiteSpace=wrap;html=1;align=center;" vertex="1" parent="1"><mxGeometry x="720" y="-120" width="120" height="40" as="geometry"/></mxCell><mxCell id="10" value="songLength" style="ellipse;whiteSpace=wrap;html=1;align=center;" vertex="1" parent="1"><mxGeometry x="450" y="-10" width="120" height="40" as="geometry"/></mxCell><mxCell id="13" value="genre" style="ellipse;whiteSpace=wrap;html=1;align=center;" vertex="1" parent="1"><mxGeometry x="640" y="-40" width="120" height="40" as="geometry"/></mxCell><mxCell id="24" value="aritst" style="rounded=1;arcSize=10;whiteSpace=wrap;html=1;align=center;" vertex="1" parent="1"><mxGeometry x="160" y="520" width="120" height="40" as="geometry"/></mxCell><mxCell id="26" value="artistID" style="ellipse;whiteSpace=wrap;html=1;align=center;fontStyle=4;" vertex="1" parent="1"><mxGeometry x="280" y="600" width="120" height="40" as="geometry"/></mxCell><mxCell id="27" value="name" style="ellipse;whiteSpace=wrap;html=1;align=center;" vertex="1" parent="1"><mxGeometry x="40" y="600" width="120" height="40" as="geometry"/></mxCell><mxCell id="28" value="activeSince" style="ellipse;whiteSpace=wrap;html=1;align=center;" vertex="1" parent="1"><mxGeometry x="160" y="630" width="120" height="40" as="geometry"/></mxCell><mxCell id="29" value="imageName" style="ellipse;whiteSpace=wrap;html=1;align=center;" vertex="1" parent="1"><mxGeometry y="520" width="120" height="40" as="geometry"/></mxCell><mxCell id="34" value="user" style="rounded=1;arcSize=10;whiteSpace=wrap;html=1;align=center;" vertex="1" parent="1"><mxGeometry x="640" y="520" width="120" height="40" as="geometry"/></mxCell><mxCell id="35" value="userID" style="ellipse;whiteSpace=wrap;html=1;align=center;fontStyle=4;" vertex="1" parent="1"><mxGeometry x="520" y="600" width="120" height="40" as="geometry"/></mxCell><mxCell id="36" value="username" style="ellipse;whiteSpace=wrap;html=1;align=center;" vertex="1" parent="1"><mxGeometry x="560" y="680" width="120" height="40" as="geometry"/></mxCell><mxCell id="37" value="userPassword" style="ellipse;whiteSpace=wrap;html=1;align=center;" vertex="1" parent="1"><mxGeometry x="800" y="520" width="120" height="40" as="geometry"/></mxCell><mxCell id="38" value="imageName" style="ellipse;whiteSpace=wrap;html=1;align=center;" vertex="1" parent="1"><mxGeometry x="770" y="590" width="120" height="40" as="geometry"/></mxCell><mxCell id="39" value="email" style="ellipse;whiteSpace=wrap;html=1;align=center;" vertex="1" parent="1"><mxGeometry x="720" y="680" width="120" height="40" as="geometry"/></mxCell><mxCell id="40" value="album" style="rounded=1;arcSize=10;whiteSpace=wrap;html=1;align=center;" vertex="1" parent="1"><mxGeometry x="160" y="120" width="120" height="40" as="geometry"/></mxCell><mxCell id="42" value="albumID" style="ellipse;whiteSpace=wrap;html=1;align=center;fontStyle=4;" vertex="1" parent="1"><mxGeometry x="240" y="40" width="120" height="40" as="geometry"/></mxCell><mxCell id="43" value="title" style="ellipse;whiteSpace=wrap;html=1;align=center;" vertex="1" parent="1"><mxGeometry x="20" y="160" width="120" height="40" as="geometry"/></mxCell><mxCell id="45" value="imageName" style="ellipse;whiteSpace=wrap;html=1;align=center;" vertex="1" parent="1"><mxGeometry x="20" y="90" width="120" height="40" as="geometry"/></mxCell><mxCell id="46" value="length" style="ellipse;whiteSpace=wrap;html=1;align=center;" vertex="1" parent="1"><mxGeometry x="160" width="120" height="40" as="geometry"/></mxCell><mxCell id="47" value="in_album" style="shape=rhombus;perimeter=rhombusPerimeter;whiteSpace=wrap;html=1;align=center;" vertex="1" parent="1"><mxGeometry x="400" y="110" width="120" height="60" as="geometry"/></mxCell><mxCell id="48" value="" style="endArrow=none;html=1;rounded=0;entryX=0;entryY=0.5;entryDx=0;entryDy=0;exitX=1;exitY=0.5;exitDx=0;exitDy=0;" edge="1" parent="1" source="40" target="47"><mxGeometry width="50" height="50" relative="1" as="geometry"><mxPoint x="60" y="380" as="sourcePoint"/><mxPoint x="110" y="330" as="targetPoint"/></mxGeometry></mxCell><mxCell id="51" value="m" style="edgeLabel;html=1;align=center;verticalAlign=middle;resizable=0;points=[];" connectable="0" vertex="1" parent="48"><mxGeometry x="-0.04" y="-3" relative="1" as="geometry"><mxPoint as="offset"/></mxGeometry></mxCell><mxCell id="49" value="" style="endArrow=none;html=1;rounded=0;entryX=0;entryY=0.5;entryDx=0;entryDy=0;exitX=1;exitY=0.5;exitDx=0;exitDy=0;" edge="1" parent="1" source="47" target="2"><mxGeometry width="50" height="50" relative="1" as="geometry"><mxPoint x="350" y="280" as="sourcePoint"/><mxPoint x="400" y="230" as="targetPoint"/></mxGeometry></mxCell><mxCell id="50" value="n" style="edgeLabel;html=1;align=center;verticalAlign=middle;resizable=0;points=[];" connectable="0" vertex="1" parent="49"><mxGeometry x="0.1283" y="-1" relative="1" as="geometry"><mxPoint as="offset"/></mxGeometry></mxCell><mxCell id="52" value="releases_album" style="shape=rhombus;perimeter=rhombusPerimeter;whiteSpace=wrap;html=1;align=center;rotation=0;" vertex="1" parent="1"><mxGeometry x="160" y="320" width="120" height="60" as="geometry"/></mxCell><mxCell id="53" value="" style="endArrow=none;html=1;rounded=0;exitX=0.5;exitY=1;exitDx=0;exitDy=0;entryX=0.5;entryY=0;entryDx=0;entryDy=0;" edge="1" parent="1" source="52" target="24"><mxGeometry relative="1" as="geometry"><mxPoint x="230" y="340" as="sourcePoint"/><mxPoint x="390" y="340" as="targetPoint"/></mxGeometry></mxCell><mxCell id="54" value="n" style="edgeLabel;html=1;align=center;verticalAlign=middle;resizable=0;points=[];" connectable="0" vertex="1" parent="53"><mxGeometry x="-0.0345" relative="1" as="geometry"><mxPoint as="offset"/></mxGeometry></mxCell><mxCell id="55" value="" style="endArrow=none;html=1;rounded=0;entryX=0.5;entryY=0;entryDx=0;entryDy=0;exitX=0.5;exitY=1;exitDx=0;exitDy=0;" edge="1" parent="1" source="40" target="52"><mxGeometry relative="1" as="geometry"><mxPoint x="-130" y="460" as="sourcePoint"/><mxPoint x="30" y="460" as="targetPoint"/></mxGeometry></mxCell><mxCell id="56" value="m" style="edgeLabel;html=1;align=center;verticalAlign=middle;resizable=0;points=[];" connectable="0" vertex="1" parent="55"><mxGeometry x="-0.0164" y="2" relative="1" as="geometry"><mxPoint as="offset"/></mxGeometry></mxCell><mxCell id="58" value="is" style="shape=rhombus;perimeter=rhombusPerimeter;whiteSpace=wrap;html=1;align=center;" vertex="1" parent="1"><mxGeometry x="400" y="510" width="120" height="60" as="geometry"/></mxCell><mxCell id="59" value="" style="endArrow=none;html=1;rounded=0;entryX=1;entryY=0.5;entryDx=0;entryDy=0;exitX=0;exitY=0.5;exitDx=0;exitDy=0;" edge="1" parent="1" source="34" target="58"><mxGeometry relative="1" as="geometry"><mxPoint x="290" y="660" as="sourcePoint"/><mxPoint x="450" y="660" as="targetPoint"/></mxGeometry></mxCell><mxCell id="61" value="1" style="edgeLabel;html=1;align=center;verticalAlign=middle;resizable=0;points=[];" connectable="0" vertex="1" parent="59"><mxGeometry x="-0.0804" y="-2" relative="1" as="geometry"><mxPoint x="-1" as="offset"/></mxGeometry></mxCell><mxCell id="60" value="" style="endArrow=none;html=1;rounded=0;exitX=1;exitY=0.5;exitDx=0;exitDy=0;entryX=0;entryY=0.5;entryDx=0;entryDy=0;" edge="1" parent="1" source="24" target="58"><mxGeometry relative="1" as="geometry"><mxPoint x="360" y="610" as="sourcePoint"/><mxPoint x="520" y="610" as="targetPoint"/></mxGeometry></mxCell><mxCell id="62" value="1" style="edgeLabel;html=1;align=center;verticalAlign=middle;resizable=0;points=[];" connectable="0" vertex="1" parent="60"><mxGeometry x="0.0619" y="-2" relative="1" as="geometry"><mxPoint as="offset"/></mxGeometry></mxCell><mxCell id="64" value="playlist" style="rounded=1;arcSize=10;whiteSpace=wrap;html=1;align=center;" vertex="1" parent="1"><mxGeometry x="640" y="320" width="120" height="40" as="geometry"/></mxCell><mxCell id="66" value="playlistID" style="ellipse;whiteSpace=wrap;html=1;align=center;fontStyle=4;" vertex="1" parent="1"><mxGeometry x="800" y="280" width="120" height="40" as="geometry"/></mxCell><mxCell id="67" value="name" style="ellipse;whiteSpace=wrap;html=1;align=center;" vertex="1" parent="1"><mxGeometry x="800" y="360" width="120" height="40" as="geometry"/></mxCell><mxCell id="68" value="in_playlist" style="shape=rhombus;perimeter=rhombusPerimeter;whiteSpace=wrap;html=1;align=center;" vertex="1" parent="1"><mxGeometry x="640" y="210" width="120" height="60" as="geometry"/></mxCell><mxCell id="69" value="" style="endArrow=none;html=1;rounded=0;exitX=0.5;exitY=1;exitDx=0;exitDy=0;entryX=0.5;entryY=0;entryDx=0;entryDy=0;" edge="1" parent="1" source="68" target="64"><mxGeometry relative="1" as="geometry"><mxPoint x="400" y="400" as="sourcePoint"/><mxPoint x="560" y="400" as="targetPoint"/></mxGeometry></mxCell><mxCell id="71" value="n" style="edgeLabel;html=1;align=center;verticalAlign=middle;resizable=0;points=[];" connectable="0" vertex="1" parent="69"><mxGeometry x="0.0154" y="-1" relative="1" as="geometry"><mxPoint as="offset"/></mxGeometry></mxCell><mxCell id="70" value="" style="endArrow=none;html=1;rounded=0;exitX=0.5;exitY=0;exitDx=0;exitDy=0;entryX=0.5;entryY=1;entryDx=0;entryDy=0;" edge="1" parent="1" source="68" target="2"><mxGeometry relative="1" as="geometry"><mxPoint x="440" y="410" as="sourcePoint"/><mxPoint x="600" y="410" as="targetPoint"/></mxGeometry></mxCell><mxCell id="72" value="m" style="edgeLabel;html=1;align=center;verticalAlign=middle;resizable=0;points=[];" connectable="0" vertex="1" parent="70"><mxGeometry x="0.2" relative="1" as="geometry"><mxPoint as="offset"/></mxGeometry></mxCell><mxCell id="73" value="releases" style="shape=rhombus;perimeter=rhombusPerimeter;whiteSpace=wrap;html=1;align=center;" vertex="1" parent="1"><mxGeometry x="640" y="410" width="120" height="60" as="geometry"/></mxCell><mxCell id="74" value="" style="endArrow=none;html=1;rounded=0;exitX=0.5;exitY=1;exitDx=0;exitDy=0;entryX=0.5;entryY=0;entryDx=0;entryDy=0;" edge="1" parent="1" source="73" target="34"><mxGeometry relative="1" as="geometry"><mxPoint x="560" y="540" as="sourcePoint"/><mxPoint x="720" y="540" as="targetPoint"/></mxGeometry></mxCell><mxCell id="75" value="1" style="edgeLabel;html=1;align=center;verticalAlign=middle;resizable=0;points=[];" connectable="0" vertex="1" parent="74"><mxGeometry x="0.078" y="-3" relative="1" as="geometry"><mxPoint as="offset"/></mxGeometry></mxCell><mxCell id="76" value="" style="endArrow=none;html=1;rounded=0;entryX=0.5;entryY=0;entryDx=0;entryDy=0;exitX=0.5;exitY=1;exitDx=0;exitDy=0;" edge="1" parent="1" source="64" target="73"><mxGeometry relative="1" as="geometry"><mxPoint x="280" y="420" as="sourcePoint"/><mxPoint x="440" y="420" as="targetPoint"/></mxGeometry></mxCell><mxCell id="77" value="n" style="edgeLabel;html=1;align=center;verticalAlign=middle;resizable=0;points=[];" connectable="0" vertex="1" parent="76"><mxGeometry x="0.0267" y="-2" relative="1" as="geometry"><mxPoint as="offset"/></mxGeometry></mxCell><mxCell id="78" value="imageName" style="ellipse;whiteSpace=wrap;html=1;align=center;" vertex="1" parent="1"><mxGeometry x="920" y="320" width="120" height="40" as="geometry"/></mxCell><mxCell id="84" value="" style="endArrow=none;html=1;rounded=0;entryX=0.75;entryY=1;entryDx=0;entryDy=0;exitX=0.5;exitY=0;exitDx=0;exitDy=0;" edge="1" parent="1" source="26" target="24"><mxGeometry relative="1" as="geometry"><mxPoint x="-220" y="630" as="sourcePoint"/><mxPoint x="-60" y="630" as="targetPoint"/></mxGeometry></mxCell><mxCell id="85" value="" style="endArrow=none;html=1;rounded=0;entryX=0.5;entryY=1;entryDx=0;entryDy=0;exitX=0.5;exitY=0;exitDx=0;exitDy=0;" edge="1" parent="1" source="28" target="24"><mxGeometry relative="1" as="geometry"><mxPoint x="100" y="660" as="sourcePoint"/><mxPoint x="260" y="660" as="targetPoint"/></mxGeometry></mxCell><mxCell id="87" value="" style="endArrow=none;html=1;rounded=0;entryX=0.25;entryY=1;entryDx=0;entryDy=0;exitX=0.5;exitY=0;exitDx=0;exitDy=0;" edge="1" parent="1" source="27" target="24"><mxGeometry relative="1" as="geometry"><mxPoint x="-280" y="720" as="sourcePoint"/><mxPoint x="-120" y="720" as="targetPoint"/></mxGeometry></mxCell><mxCell id="88" value="" style="endArrow=none;html=1;rounded=0;entryX=0;entryY=0.5;entryDx=0;entryDy=0;exitX=1;exitY=0.5;exitDx=0;exitDy=0;" edge="1" parent="1" source="29" target="24"><mxGeometry relative="1" as="geometry"><mxPoint x="-60" y="660" as="sourcePoint"/><mxPoint x="100" y="660" as="targetPoint"/></mxGeometry></mxCell><mxCell id="89" value="" style="endArrow=none;html=1;rounded=0;entryX=0.25;entryY=1;entryDx=0;entryDy=0;exitX=0.5;exitY=0;exitDx=0;exitDy=0;" edge="1" parent="1" source="35" target="34"><mxGeometry relative="1" as="geometry"><mxPoint x="630" y="630" as="sourcePoint"/><mxPoint x="790" y="630" as="targetPoint"/></mxGeometry></mxCell><mxCell id="90" value="" style="endArrow=none;html=1;rounded=0;entryX=0.5;entryY=1;entryDx=0;entryDy=0;exitX=0.5;exitY=0;exitDx=0;exitDy=0;" edge="1" parent="1" source="36" target="34"><mxGeometry relative="1" as="geometry"><mxPoint x="420" y="720" as="sourcePoint"/><mxPoint x="580" y="720" as="targetPoint"/></mxGeometry></mxCell><mxCell id="91" value="" style="endArrow=none;html=1;rounded=0;entryX=0.5;entryY=1;entryDx=0;entryDy=0;exitX=0.5;exitY=0;exitDx=0;exitDy=0;" edge="1" parent="1" source="39" target="34"><mxGeometry relative="1" as="geometry"><mxPoint x="430" y="750" as="sourcePoint"/><mxPoint x="590" y="750" as="targetPoint"/></mxGeometry></mxCell><mxCell id="92" value="" style="endArrow=none;html=1;rounded=0;entryX=0.75;entryY=1;entryDx=0;entryDy=0;exitX=0.5;exitY=0;exitDx=0;exitDy=0;" edge="1" parent="1" source="38" target="34"><mxGeometry relative="1" as="geometry"><mxPoint x="850" y="710" as="sourcePoint"/><mxPoint x="1010" y="710" as="targetPoint"/></mxGeometry></mxCell><mxCell id="93" value="" style="endArrow=none;html=1;rounded=0;exitX=1;exitY=0.5;exitDx=0;exitDy=0;entryX=0;entryY=0.5;entryDx=0;entryDy=0;" edge="1" parent="1" source="34" target="37"><mxGeometry relative="1" as="geometry"><mxPoint x="810" y="440" as="sourcePoint"/><mxPoint x="970" y="440" as="targetPoint"/></mxGeometry></mxCell><mxCell id="95" value="" style="endArrow=none;html=1;rounded=0;exitX=1;exitY=1;exitDx=0;exitDy=0;entryX=0;entryY=0;entryDx=0;entryDy=0;" edge="1" parent="1" source="64" target="67"><mxGeometry relative="1" as="geometry"><mxPoint x="940" y="440" as="sourcePoint"/><mxPoint x="1100" y="440" as="targetPoint"/></mxGeometry></mxCell><mxCell id="96" value="" style="endArrow=none;html=1;rounded=0;exitX=1;exitY=0;exitDx=0;exitDy=0;entryX=0;entryY=1;entryDx=0;entryDy=0;" edge="1" parent="1" source="64" target="66"><mxGeometry relative="1" as="geometry"><mxPoint x="970" y="370" as="sourcePoint"/><mxPoint x="1130" y="370" as="targetPoint"/></mxGeometry></mxCell><mxCell id="97" value="" style="endArrow=none;html=1;rounded=0;entryX=1;entryY=0.5;entryDx=0;entryDy=0;exitX=0;exitY=0.5;exitDx=0;exitDy=0;" edge="1" parent="1" source="78" target="64"><mxGeometry relative="1" as="geometry"><mxPoint x="910" y="350" as="sourcePoint"/><mxPoint x="770" y="350" as="targetPoint"/></mxGeometry></mxCell><mxCell id="102" value="" style="endArrow=none;html=1;rounded=0;entryX=0;entryY=0;entryDx=0;entryDy=0;exitX=1;exitY=1;exitDx=0;exitDy=0;" edge="1" parent="1" source="10" target="2"><mxGeometry relative="1" as="geometry"><mxPoint x="380" y="140" as="sourcePoint"/><mxPoint x="540" y="140" as="targetPoint"/></mxGeometry></mxCell><mxCell id="104" value="" style="endArrow=none;html=1;rounded=0;entryX=1;entryY=0;entryDx=0;entryDy=0;exitX=0;exitY=1;exitDx=0;exitDy=0;" edge="1" parent="1" source="3" target="2"><mxGeometry relative="1" as="geometry"><mxPoint x="370" y="150" as="sourcePoint"/><mxPoint x="530" y="150" as="targetPoint"/></mxGeometry></mxCell><mxCell id="105" value="" style="endArrow=none;html=1;rounded=0;entryX=0.75;entryY=0;entryDx=0;entryDy=0;exitX=0;exitY=1;exitDx=0;exitDy=0;" edge="1" parent="1" source="6" target="2"><mxGeometry relative="1" as="geometry"><mxPoint x="300" y="140" as="sourcePoint"/><mxPoint x="460" y="140" as="targetPoint"/></mxGeometry></mxCell><mxCell id="107" value="" style="endArrow=none;html=1;rounded=0;entryX=0.25;entryY=0;entryDx=0;entryDy=0;exitX=0.5;exitY=1;exitDx=0;exitDy=0;" edge="1" parent="1" source="5" target="2"><mxGeometry relative="1" as="geometry"><mxPoint x="340" y="130" as="sourcePoint"/><mxPoint x="500" y="130" as="targetPoint"/></mxGeometry></mxCell><mxCell id="108" value="" style="endArrow=none;html=1;rounded=0;exitX=0.75;exitY=0;exitDx=0;exitDy=0;entryX=0.5;entryY=1;entryDx=0;entryDy=0;" edge="1" parent="1" source="2" target="8"><mxGeometry relative="1" as="geometry"><mxPoint x="880" y="220" as="sourcePoint"/><mxPoint x="1040" y="220" as="targetPoint"/></mxGeometry></mxCell><mxCell id="109" value="" style="endArrow=none;html=1;rounded=0;exitX=1;exitY=0;exitDx=0;exitDy=0;" edge="1" parent="1" source="43"><mxGeometry relative="1" as="geometry"><mxPoint x="30" y="310" as="sourcePoint"/><mxPoint x="160" y="160" as="targetPoint"/></mxGeometry></mxCell><mxCell id="110" value="" style="endArrow=none;html=1;rounded=0;exitX=0;exitY=0;exitDx=0;exitDy=0;entryX=1;entryY=0.5;entryDx=0;entryDy=0;" edge="1" parent="1" source="40" target="45"><mxGeometry relative="1" as="geometry"><mxPoint x="210" y="200" as="sourcePoint"/><mxPoint x="370" y="200" as="targetPoint"/></mxGeometry></mxCell><mxCell id="111" value="" style="endArrow=none;html=1;rounded=0;exitX=0.5;exitY=1;exitDx=0;exitDy=0;entryX=0.5;entryY=0;entryDx=0;entryDy=0;" edge="1" parent="1" source="46" target="40"><mxGeometry relative="1" as="geometry"><mxPoint x="330" y="250" as="sourcePoint"/><mxPoint x="490" y="250" as="targetPoint"/></mxGeometry></mxCell><mxCell id="112" value="" style="endArrow=none;html=1;rounded=0;exitX=0.75;exitY=0;exitDx=0;exitDy=0;entryX=0.5;entryY=1;entryDx=0;entryDy=0;" edge="1" parent="1" source="40" target="42"><mxGeometry relative="1" as="geometry"><mxPoint x="310" y="230" as="sourcePoint"/><mxPoint x="470" y="230" as="targetPoint"/></mxGeometry></mxCell><mxCell id="113" value="" style="endArrow=none;html=1;rounded=0;exitX=0.5;exitY=0;exitDx=0;exitDy=0;entryX=0.5;entryY=1;entryDx=0;entryDy=0;" edge="1" parent="1" source="2" target="13"><mxGeometry relative="1" as="geometry"><mxPoint x="990" y="310" as="sourcePoint"/><mxPoint x="1150" y="310" as="targetPoint"/></mxGeometry></mxCell><mxCell id="114" value="releases_song" style="shape=rhombus;perimeter=rhombusPerimeter;whiteSpace=wrap;html=1;align=center;rotation=-45;" vertex="1" parent="1"><mxGeometry x="400" y="300" width="120" height="60" as="geometry"/></mxCell><mxCell id="115" value="" style="endArrow=none;html=1;rounded=0;entryX=0;entryY=1;entryDx=0;entryDy=0;exitX=1;exitY=0.5;exitDx=0;exitDy=0;" edge="1" parent="1" source="114" target="2"><mxGeometry relative="1" as="geometry"><mxPoint x="360" y="240" as="sourcePoint"/><mxPoint x="520" y="240" as="targetPoint"/></mxGeometry></mxCell><mxCell id="117" value="n" style="edgeLabel;html=1;align=center;verticalAlign=middle;resizable=0;points=[];" connectable="0" vertex="1" parent="115"><mxGeometry x="0.0498" y="-1" relative="1" as="geometry"><mxPoint y="-1" as="offset"/></mxGeometry></mxCell><mxCell id="116" value="" style="endArrow=none;html=1;rounded=0;exitX=1;exitY=0;exitDx=0;exitDy=0;entryX=0;entryY=0.5;entryDx=0;entryDy=0;" edge="1" parent="1" source="24" target="114"><mxGeometry relative="1" as="geometry"><mxPoint x="370" y="460" as="sourcePoint"/><mxPoint x="530" y="460" as="targetPoint"/></mxGeometry></mxCell><mxCell id="118" value="m" style="edgeLabel;html=1;align=center;verticalAlign=middle;resizable=0;points=[];" connectable="0" vertex="1" parent="116"><mxGeometry x="0.2131" y="-1" relative="1" as="geometry"><mxPoint as="offset"/></mxGeometry></mxCell><mxCell id="120" value="flacFileName" style="ellipse;whiteSpace=wrap;html=1;align=center;" vertex="1" parent="1"><mxGeometry x="810" y="80" width="120" height="40" as="geometry"/></mxCell><mxCell id="122" value="" style="endArrow=none;html=1;rounded=0;exitX=1;exitY=0.5;exitDx=0;exitDy=0;entryX=0;entryY=0.5;entryDx=0;entryDy=0;" edge="1" parent="1" source="2" target="120"><mxGeometry relative="1" as="geometry"><mxPoint x="820" y="200" as="sourcePoint"/><mxPoint x="980" y="200" as="targetPoint"/></mxGeometry></mxCell><mxCell id="123" value="isAdmin" style="ellipse;whiteSpace=wrap;html=1;align=center;" vertex="1" parent="1"><mxGeometry x="650" y="740" width="100" height="40" as="geometry"/></mxCell><mxCell id="124" value="" style="endArrow=none;html=1;rounded=0;exitX=0.5;exitY=1;exitDx=0;exitDy=0;entryX=0.5;entryY=0;entryDx=0;entryDy=0;" edge="1" parent="1" source="34" target="123"><mxGeometry relative="1" as="geometry"><mxPoint x="520" y="840" as="sourcePoint"/><mxPoint x="680" y="840" as="targetPoint"/></mxGeometry></mxCell><mxCell id="125" value="isArtist" style="ellipse;whiteSpace=wrap;html=1;align=center;" vertex="1" parent="1"><mxGeometry x="820" y="430" width="100" height="40" as="geometry"/></mxCell><mxCell id="126" value="" style="endArrow=none;html=1;rounded=0;entryX=1;entryY=0;entryDx=0;entryDy=0;exitX=0.5;exitY=1;exitDx=0;exitDy=0;" edge="1" parent="1" source="125" target="34"><mxGeometry relative="1" as="geometry"><mxPoint x="370" y="820" as="sourcePoint"/><mxPoint x="530" y="820" as="targetPoint"/></mxGeometry></mxCell><mxCell id="127" value="thumbnailName" style="ellipse;whiteSpace=wrap;html=1;align=center;" vertex="1" parent="1"><mxGeometry x="80" y="40" width="120" height="40" as="geometry"/></mxCell><mxCell id="128" value="" style="endArrow=none;html=1;rounded=0;exitX=0.5;exitY=1;exitDx=0;exitDy=0;entryX=0.25;entryY=0;entryDx=0;entryDy=0;" edge="1" parent="1" source="127" target="40"><mxGeometry relative="1" as="geometry"><mxPoint x="50" y="330" as="sourcePoint"/><mxPoint x="210" y="330" as="targetPoint"/></mxGeometry></mxCell><mxCell id="129" value="duration" style="ellipse;whiteSpace=wrap;html=1;align=center;" vertex="1" parent="1"><mxGeometry x="270" y="200" width="120" height="40" as="geometry"/></mxCell><mxCell id="130" value="releaseDate" style="ellipse;whiteSpace=wrap;html=1;align=center;" vertex="1" parent="1"><mxGeometry x="90" y="200" width="120" height="40" as="geometry"/></mxCell><mxCell id="131" value="" style="endArrow=none;html=1;rounded=0;entryX=0.25;entryY=1;entryDx=0;entryDy=0;exitX=0.5;exitY=0;exitDx=0;exitDy=0;" edge="1" parent="1" source="130" target="40"><mxGeometry relative="1" as="geometry"><mxPoint x="50" y="310" as="sourcePoint"/><mxPoint x="210" y="310" as="targetPoint"/></mxGeometry></mxCell><mxCell id="132" value="" style="endArrow=none;html=1;rounded=0;exitX=0.817;exitY=0.95;exitDx=0;exitDy=0;exitPerimeter=0;entryX=0.5;entryY=0;entryDx=0;entryDy=0;" edge="1" parent="1" source="40" target="129"><mxGeometry relative="1" as="geometry"><mxPoint x="270" y="270" as="sourcePoint"/><mxPoint x="430" y="270" as="targetPoint"/></mxGeometry></mxCell><mxCell id="133" value="thumbnailName" style="ellipse;whiteSpace=wrap;html=1;align=center;" vertex="1" parent="1"><mxGeometry x="440" y="-80" width="120" height="40" as="geometry"/></mxCell><mxCell id="134" value="" style="endArrow=none;html=1;rounded=0;entryX=0.25;entryY=0;entryDx=0;entryDy=0;exitX=1;exitY=1;exitDx=0;exitDy=0;" edge="1" parent="1" source="133" target="2"><mxGeometry relative="1" as="geometry"><mxPoint x="430" y="10" as="sourcePoint"/><mxPoint x="590" y="10" as="targetPoint"/></mxGeometry></mxCell><mxCell id="135" value="opusFileName" style="ellipse;whiteSpace=wrap;html=1;align=center;" vertex="1" parent="1"><mxGeometry x="800" y="160" width="120" height="40" as="geometry"/></mxCell><mxCell id="136" value="" style="endArrow=none;html=1;rounded=0;exitX=1;exitY=1;exitDx=0;exitDy=0;entryX=0;entryY=0;entryDx=0;entryDy=0;" edge="1" parent="1" source="2" target="135"><mxGeometry relative="1" as="geometry"><mxPoint x="890" y="210" as="sourcePoint"/><mxPoint x="1050" y="210" as="targetPoint"/></mxGeometry></mxCell><mxCell id="137" value="thumbnailName" style="ellipse;whiteSpace=wrap;html=1;align=center;" vertex="1" parent="1"><mxGeometry x="800" y="230" width="120" height="40" as="geometry"/></mxCell><mxCell id="138" value="" style="endArrow=none;html=1;rounded=0;exitX=0;exitY=1;exitDx=0;exitDy=0;entryX=0.75;entryY=0;entryDx=0;entryDy=0;" edge="1" parent="1" source="137" target="64"><mxGeometry relative="1" as="geometry"><mxPoint x="930" y="460" as="sourcePoint"/><mxPoint x="1090" y="460" as="targetPoint"/></mxGeometry></mxCell><mxCell id="139" value="length" style="ellipse;whiteSpace=wrap;html=1;align=center;" vertex="1" parent="1"><mxGeometry x="510" y="290" width="120" height="40" as="geometry"/></mxCell><mxCell id="140" value="duration" style="ellipse;whiteSpace=wrap;html=1;align=center;" vertex="1" parent="1"><mxGeometry x="510" y="360" width="120" height="40" as="geometry"/></mxCell><mxCell id="141" value="" style="endArrow=none;html=1;rounded=0;entryX=0;entryY=1;entryDx=0;entryDy=0;exitX=1;exitY=0;exitDx=0;exitDy=0;" edge="1" parent="1" source="140" target="64"><mxGeometry relative="1" as="geometry"><mxPoint x="440" y="460" as="sourcePoint"/><mxPoint x="600" y="460" as="targetPoint"/></mxGeometry></mxCell><mxCell id="142" value="" style="endArrow=none;html=1;rounded=0;entryX=0;entryY=0;entryDx=0;entryDy=0;exitX=1;exitY=0.5;exitDx=0;exitDy=0;" edge="1" parent="1" source="139" target="64"><mxGeometry relative="1" as="geometry"><mxPoint x="420" y="450" as="sourcePoint"/><mxPoint x="580" y="450" as="targetPoint"/></mxGeometry></mxCell><mxCell id="143" value="salt" style="ellipse;whiteSpace=wrap;html=1;align=center;" vertex="1" parent="1"><mxGeometry x="880" y="565" width="120" height="40" as="geometry"/></mxCell><mxCell id="144" value="" style="endArrow=none;html=1;rounded=0;exitX=1;exitY=1;exitDx=0;exitDy=0;entryX=0;entryY=0.5;entryDx=0;entryDy=0;" edge="1" parent="1" source="34" target="143"><mxGeometry relative="1" as="geometry"><mxPoint x="870" y="710" as="sourcePoint"/><mxPoint x="1030" y="710" as="targetPoint"/></mxGeometry></mxCell><mxCell id="145" value="thumbnailName" style="ellipse;whiteSpace=wrap;html=1;align=center;" vertex="1" parent="1"><mxGeometry x="800" y="640" width="120" height="40" as="geometry"/></mxCell><mxCell id="146" value="" style="endArrow=none;html=1;rounded=0;exitX=0.558;exitY=0.975;exitDx=0;exitDy=0;exitPerimeter=0;entryX=0;entryY=0.5;entryDx=0;entryDy=0;" edge="1" parent="1" source="34" target="145"><mxGeometry relative="1" as="geometry"><mxPoint x="820" y="810" as="sourcePoint"/><mxPoint x="980" y="810" as="targetPoint"/></mxGeometry></mxCell><mxCell id="147" value="thumbnailName" style="ellipse;whiteSpace=wrap;html=1;align=center;" vertex="1" parent="1"><mxGeometry x="30" y="440" width="120" height="40" as="geometry"/></mxCell><mxCell id="148" value="" style="endArrow=none;html=1;rounded=0;exitX=1;exitY=1;exitDx=0;exitDy=0;entryX=0.25;entryY=0;entryDx=0;entryDy=0;" edge="1" parent="1" source="147" target="24"><mxGeometry relative="1" as="geometry"><mxPoint x="90" y="750" as="sourcePoint"/><mxPoint x="250" y="750" as="targetPoint"/></mxGeometry></mxCell><mxCell id="149" value="artistIndex" style="ellipse;whiteSpace=wrap;html=1;align=center;rotation=-45;" vertex="1" parent="1"><mxGeometry x="347.07" y="252.93" width="120" height="40" as="geometry"/></mxCell><mxCell id="150" value="" style="endArrow=none;html=1;rounded=0;entryX=0.5;entryY=1;entryDx=0;entryDy=0;exitX=0.5;exitY=0;exitDx=0;exitDy=0;" edge="1" parent="1" source="114" target="149"><mxGeometry relative="1" as="geometry"><mxPoint x="180" y="410" as="sourcePoint"/><mxPoint x="340" y="410" as="targetPoint"/></mxGeometry></mxCell><mxCell id="151" value="artistIndex" style="ellipse;whiteSpace=wrap;html=1;align=center;" vertex="1" parent="1"><mxGeometry x="20" y="330" width="120" height="40" as="geometry"/></mxCell><mxCell id="152" value="" style="endArrow=none;html=1;rounded=0;entryX=0;entryY=0.5;entryDx=0;entryDy=0;exitX=1;exitY=0.5;exitDx=0;exitDy=0;" edge="1" parent="1" source="151" target="52"><mxGeometry relative="1" as="geometry"><mxPoint x="20" y="420" as="sourcePoint"/><mxPoint x="180" y="420" as="targetPoint"/></mxGeometry></mxCell><mxCell id="153" value="songIndex" style="ellipse;whiteSpace=wrap;html=1;align=center;" vertex="1" parent="1"><mxGeometry x="400" y="50" width="120" height="40" as="geometry"/></mxCell><mxCell id="154" value="" style="endArrow=none;html=1;rounded=0;entryX=0.5;entryY=1;entryDx=0;entryDy=0;exitX=0.5;exitY=0;exitDx=0;exitDy=0;" edge="1" parent="1" source="47" target="153"><mxGeometry relative="1" as="geometry"><mxPoint x="370" y="200" as="sourcePoint"/><mxPoint x="510" y="180" as="targetPoint"/></mxGeometry></mxCell><mxCell id="155" value="Attribute" style="ellipse;whiteSpace=wrap;html=1;align=center;" vertex="1" parent="1"><mxGeometry x="910" y="190" width="120" height="40" as="geometry"/></mxCell><mxCell id="156" value="" style="endArrow=none;html=1;rounded=0;entryX=0;entryY=0.5;entryDx=0;entryDy=0;exitX=1;exitY=0.5;exitDx=0;exitDy=0;" edge="1" parent="1" source="68" target="155"><mxGeometry relative="1" as="geometry"><mxPoint x="740" y="210" as="sourcePoint"/><mxPoint x="900" y="210" as="targetPoint"/></mxGeometry></mxCell></root></mxGraphModel></diagram></mxfile>